<svg width="600" height="116" viewBox="0 0 600 116" fill="none" xmlns="http://www.w3.org/2000/svg">
<g opacity="0.1">
<path d="M6.47268 16.2674H39.6719C51.1559 16.2674 60.2735 19.5734 67.0247 26.1854C73.7759 32.7278 77.1515 41.741 77.1515 53.225C77.1515 65.4746 73.8803 74.7662 67.3379 81.0998C60.8651 87.4334 51.5039 90.6002 39.2543 90.6002H6.47268V16.2674ZM28.8143 34.955V71.8082H37.7927C43.2911 71.8082 47.4323 70.2074 50.2163 67.0058C53.0699 63.8042 54.4967 59.3498 54.4967 53.6426C54.4967 47.4482 52.8263 42.785 49.4855 39.653C46.2143 36.521 41.5859 34.955 35.6003 34.955H28.8143ZM107.983 16.2674V30.6746H87.3117V16.2674H107.983ZM107.983 36.7298V90.6002H87.3117V36.7298H107.983ZM175.783 74.4182C174.183 80.1254 170.703 84.5102 165.343 87.5726C160.054 90.635 154.242 92.1662 147.909 92.1662C139.139 92.1662 131.866 89.6954 126.089 84.7538C120.312 79.8122 117.424 72.9914 117.424 64.2914C117.424 55.8698 120.208 48.9446 125.776 43.5158C131.413 38.087 138.547 35.3726 147.178 35.3726C156.226 35.3726 163.429 38.1914 168.789 43.829C174.217 49.4666 176.932 57.053 176.932 66.5882V68.1542H137.26C137.399 71.5646 138.373 74.2094 140.183 76.0886C142.062 77.9678 144.603 78.9074 147.804 78.9074C151.632 78.9074 154.521 77.411 156.469 74.4182H175.783ZM156.783 57.8186C156.226 51.6938 153.059 48.6314 147.282 48.6314C141.714 48.6314 138.408 51.6938 137.364 57.8186H156.783ZM235.592 52.4942H216.905C216.557 50.5454 215.861 49.223 214.817 48.527C213.773 47.831 212.033 47.483 209.597 47.483C205.838 47.483 203.959 48.5618 203.959 50.7194C203.959 51.485 204.238 52.181 204.794 52.8074C205.421 53.3642 206.326 53.8514 207.509 54.269C208.692 54.617 209.701 54.8954 210.536 55.1042C211.372 55.2434 212.45 55.4174 213.773 55.6262C215.095 55.7654 215.791 55.835 215.861 55.835C218.366 56.3222 220.42 56.7746 222.02 57.1922C223.691 57.5402 225.57 58.1666 227.658 59.0714C229.746 59.9762 231.416 60.9854 232.669 62.099C233.922 63.2126 234.966 64.709 235.801 66.5882C236.706 68.4674 237.158 70.625 237.158 73.061C237.158 78.977 234.757 83.6054 229.955 86.9462C225.152 90.287 218.506 91.9574 210.014 91.9574C192.823 91.9574 183.706 85.5194 182.662 72.6434H202.184C202.463 74.8706 203.228 76.5062 204.481 77.5502C205.804 78.5246 207.787 79.0118 210.432 79.0118C212.45 79.0118 214.016 78.629 215.13 77.8634C216.313 77.0978 216.905 76.0538 216.905 74.7314C216.905 73.409 216.348 72.4694 215.234 71.9126C214.121 71.3558 211.998 70.7294 208.866 70.0334C207.822 69.8246 206.987 69.6506 206.36 69.5114C199.261 67.9802 194.528 66.623 192.162 65.4398C186.594 62.7254 183.81 58.3058 183.81 52.181C183.81 46.6826 186.037 42.4718 190.492 39.5486C195.016 36.6254 201.523 35.1638 210.014 35.1638C217.322 35.1638 223.273 36.4514 227.867 39.0266C232.46 41.5322 235.036 46.0214 235.592 52.4942ZM301.492 74.4182C299.891 80.1254 296.411 84.5102 291.052 87.5726C285.762 90.635 279.95 92.1662 273.617 92.1662C264.847 92.1662 257.574 89.6954 251.797 84.7538C246.02 79.8122 243.132 72.9914 243.132 64.2914C243.132 55.8698 245.916 48.9446 251.484 43.5158C257.122 38.087 264.256 35.3726 272.886 35.3726C281.934 35.3726 289.138 38.1914 294.497 43.829C299.926 49.4666 302.64 57.053 302.64 66.5882V68.1542H262.968C263.107 71.5646 264.082 74.2094 265.891 76.0886C267.77 77.9678 270.311 78.9074 273.512 78.9074C277.34 78.9074 280.229 77.411 282.178 74.4182H301.492ZM282.491 57.8186C281.934 51.6938 278.767 48.6314 272.99 48.6314C267.422 48.6314 264.116 51.6938 263.072 57.8186H282.491ZM332.382 16.2674V90.6002H311.711V16.2674H332.382ZM428.926 38.1914H416.502C415.736 29.4914 410.342 25.1414 400.32 25.1414C395.866 25.1414 392.386 26.081 389.88 27.9602C387.374 29.7698 386.122 32.2754 386.122 35.477C386.122 38.4698 387.026 40.523 388.836 41.6366C390.715 42.7502 394.822 44.1074 401.155 45.7082C402.826 46.1954 404.113 46.5434 405.018 46.7522C413.3 48.8402 418.938 50.7194 421.931 52.3898C428.543 55.9394 431.849 61.4726 431.849 68.9894C431.849 72.2606 431.292 75.2186 430.178 77.8634C429.065 80.5082 427.568 82.7354 425.689 84.545C423.81 86.285 421.583 87.7466 419.008 88.9298C416.432 90.113 413.753 90.9482 410.969 91.4354C408.185 91.9922 405.296 92.2706 402.304 92.2706C392.977 92.2706 385.426 90.0434 379.649 85.589C373.872 81.1346 370.984 74.5922 370.984 65.9618H383.825C383.825 71.3906 385.6 75.4274 389.149 78.0722C392.699 80.6474 397.327 81.935 403.034 81.935C408.046 81.935 411.943 80.9258 414.727 78.9074C417.581 76.8194 419.008 73.931 419.008 70.2422C419.008 67.8758 418.242 65.9618 416.711 64.5002C415.249 62.969 413.648 61.8902 411.908 61.2638C410.168 60.6374 407.141 59.7674 402.826 58.6538C402.338 58.5146 401.956 58.4102 401.677 58.3406C392.42 55.9742 386.33 54.0254 383.407 52.4942C377.352 49.3622 374.116 44.525 373.698 37.9826C373.698 37.4954 373.698 37.0082 373.698 36.521C373.698 29.909 376.169 24.6542 381.11 20.7566C386.122 16.7894 392.803 14.8058 401.155 14.8058C409.229 14.8058 415.806 16.7198 420.887 20.5478C425.968 24.3758 428.647 30.257 428.926 38.1914ZM452.983 36.7298V43.9334C456.603 38.087 462.449 35.1638 470.523 35.1638C477.97 35.1638 483.921 37.7738 488.375 42.9938C492.829 48.2138 495.057 55.1738 495.057 63.8738C495.057 72.365 492.864 79.1858 488.479 84.3362C484.164 89.417 478.387 91.9574 471.149 91.9574C463.493 91.9574 457.647 89.1386 453.61 83.501V110.541H441.813V36.7298H452.983ZM468.121 44.7686C463.458 44.7686 459.804 46.439 457.159 49.7798C454.515 53.1206 453.192 57.749 453.192 63.665C453.192 69.5114 454.515 74.105 457.159 77.4458C459.874 80.7866 463.597 82.457 468.33 82.457C472.854 82.457 476.439 80.7866 479.083 77.4458C481.728 74.105 483.051 69.581 483.051 63.8738C483.051 58.0274 481.693 53.399 478.979 49.9886C476.334 46.5086 472.715 44.7686 468.121 44.7686ZM530.378 35.1638C538.591 35.1638 545.133 37.739 550.005 42.8894C554.877 48.0398 557.313 54.965 557.313 63.665C557.313 72.4346 554.877 79.3946 550.005 84.545C545.203 89.6954 538.66 92.2706 530.378 92.2706C521.956 92.2706 515.275 89.6954 510.333 84.545C505.392 79.3946 502.921 72.4346 502.921 63.665C502.921 54.965 505.392 48.0398 510.333 42.8894C515.344 37.739 522.026 35.1638 530.378 35.1638ZM541.236 49.6754C538.591 46.265 534.902 44.5598 530.169 44.5598C525.436 44.5598 521.713 46.265 518.998 49.6754C516.284 53.0858 514.927 57.749 514.927 63.665C514.927 69.7202 516.284 74.453 518.998 77.8634C521.713 81.2738 525.471 82.979 530.274 82.979C534.937 82.979 538.591 81.2738 541.236 77.8634C543.95 74.3834 545.307 69.6158 545.307 63.5606C545.307 57.6446 543.95 53.0162 541.236 49.6754ZM593.621 36.7298V45.395H582.763V73.7918C582.763 75.4622 582.798 76.6454 582.868 77.3414C582.937 77.9678 583.146 78.6986 583.494 79.5338C583.842 80.2994 584.434 80.8214 585.269 81.0998C586.174 81.3782 587.392 81.5174 588.923 81.5174C590.872 81.5174 592.438 81.4478 593.621 81.3086V90.7046C591.254 90.983 588.575 91.1222 585.582 91.1222C583.494 91.1222 581.65 90.9482 580.049 90.6002C578.518 90.3218 577.23 89.9738 576.186 89.5562C575.142 89.1386 574.272 88.4426 573.576 87.4682C572.88 86.4242 572.323 85.589 571.906 84.9626C571.558 84.2666 571.279 83.0834 571.07 81.413C570.931 79.7426 570.862 78.4898 570.862 77.6546C570.862 76.7498 570.862 75.2186 570.862 73.061C570.862 72.1562 570.862 71.495 570.862 71.0774V45.395H561.883V36.7298H570.862V20.5478H582.763V36.7298H593.621Z" fill="white"/>
<path d="M108.267 0H85.0667L96.6666 11.6L108.267 0Z" fill="url(#paint0_linear_529_371)"/>
<rect x="85.0667" y="11.6002" width="30.9333" height="19.3333" fill="#070707"/>
<path d="M108.267 19.3331V88.9331H85.0667V41.8507C85.0667 30.3872 100.533 22.0625 108.267 19.3331Z" fill="white"/>
</g>
<defs>
<linearGradient id="paint0_linear_529_371" x1="102.306" y1="-1.15937e-06" x2="109.73" y2="0.952619" gradientUnits="userSpaceOnUse">
<stop stop-color="#FFA500"/>
<stop offset="1" stop-color="#F8BC36"/>
</linearGradient>
</defs>
</svg>
