<svg width="18" height="18" viewBox="0 0 18 18" fill="none" xmlns="http://www.w3.org/2000/svg">
<path d="M9.0001 5.10154e-07C7.43868 -0.000525151 5.90398 0.405187 4.5468 1.17727C3.18962 1.94936 2.05666 3.06125 1.25924 4.4037C0.46182 5.74615 0.0273773 7.27296 -0.00140063 8.83413C-0.0301786 10.3953 0.347698 11.9371 1.0951 13.308L0.0301005 17.043C-0.00737361 17.1742 -0.00837197 17.313 0.027213 17.4447C0.062798 17.5764 0.133619 17.6959 0.232053 17.7903C0.330488 17.8847 0.452809 17.9505 0.585851 17.9806C0.718894 18.0107 0.85762 18.0039 0.9871 17.961L4.4941 16.7925C5.68939 17.4832 7.02755 17.8897 8.40507 17.9805C9.78259 18.0713 11.1625 17.844 12.4382 17.3162C13.7138 16.7884 14.8509 15.9742 15.7615 14.9366C16.6721 13.899 17.3318 12.6658 17.6896 11.3325C18.0474 9.99915 18.0936 8.60138 17.8248 7.2473C17.5559 5.89323 16.9792 4.61914 16.1392 3.52362C15.2992 2.4281 14.2184 1.54051 12.9804 0.929501C11.7425 0.318497 10.3806 0.000461924 9.0001 5.10154e-07ZM6.0001 7.5C6.0001 7.30109 6.07912 7.11032 6.21977 6.96967C6.36042 6.82902 6.55119 6.75 6.7501 6.75H11.2501C11.449 6.75 11.6398 6.82902 11.7804 6.96967C11.9211 7.11032 12.0001 7.30109 12.0001 7.5C12.0001 7.69891 11.9211 7.88968 11.7804 8.03033C11.6398 8.17098 11.449 8.25 11.2501 8.25H6.7501C6.55119 8.25 6.36042 8.17098 6.21977 8.03033C6.07912 7.88968 6.0001 7.69891 6.0001 7.5ZM6.7501 9.75H9.7501C9.94901 9.75 10.1398 9.82902 10.2804 9.96967C10.4211 10.1103 10.5001 10.3011 10.5001 10.5C10.5001 10.6989 10.4211 10.8897 10.2804 11.0303C10.1398 11.171 9.94901 11.25 9.7501 11.25H6.7501C6.55119 11.25 6.36042 11.171 6.21977 11.0303C6.07912 10.8897 6.0001 10.6989 6.0001 10.5C6.0001 10.3011 6.07912 10.1103 6.21977 9.96967C6.36042 9.82902 6.55119 9.75 6.7501 9.75Z" fill="white"/>
</svg>
